<svg aria-hidden="true" style="position:absolute;width:0;height:0" xmlns="http://www.w3.org/2000/svg" overflow="hidden"><defs><symbol id="MAGNIFYING" viewBox="0 0 32 32"><path d="M31.101 26.862a3 3 0 0 1-4.248 4.238l-8.769-8.78A11.896 11.896 0 0 1 11.952 24C5.307 24-.08 18.613-.08 11.968S5.307-.064 11.952-.064c6.645 0 12.032 5.387 12.032 12.032 0 2.255-.62 4.365-1.7 6.169l.03-.055 8.788 8.78zm-19.1-23.846a8.987 8.987 0 1 0 8.987 8.987 8.993 8.993 0 0 0-8.987-8.987z"/></symbol><symbol id="SHOPPING" viewBox="0 0 40 32"><path d="M40.003 7.07l-5.656 12.544a1.865 1.865 0 0 1-1.592 1.104h-.005l-16.238 1.083.935 2.684h17.698a3.763 3.763 0 1 1-3.763 3.765H13.821a3.764 3.764 0 1 1-3.763-3.765h3.398L6.203 3.788h-4.31a1.882 1.882 0 1 1 0-3.764h5.656c.816.006 1.51.525 1.775 1.25l.004.013 1.095 3.131h27.856c1.04 0 1.883.842 1.884 1.881a2.14 2.14 0 0 1-.165.783l.005-.014zM11.745 8.181l3.467 9.937 16.17-1.079 3.991-8.858H11.745z"/></symbol></defs></svg>